<svg width="42" height="42" viewBox="0 0 42 42" fill="none" xmlns="http://www.w3.org/2000/svg">
<g filter="url(#filter0_d_8_16624)">
<circle cx="21" cy="21" r="15" fill="white" style="fill:white;fill-opacity:1;"/>
</g>
<path d="M15.0947 19.9688C15.6995 19.9688 16.1903 20.4587 16.1904 21.0635C16.1904 21.6683 15.6995 22.1592 15.0947 22.1592C14.4901 22.159 14 21.6682 14 21.0635C14.0001 20.4588 14.4901 19.969 15.0947 19.9688ZM20.5518 19.9688C21.1564 19.9688 21.6472 20.4588 21.6475 21.0635C21.6475 21.6683 21.1566 22.1592 20.5518 22.1592C19.9471 22.159 19.457 21.6682 19.457 21.0635C19.4573 20.459 19.9473 19.969 20.5518 19.9688ZM26.0049 19.9688C26.6095 19.9688 27.1003 20.4588 27.1006 21.0635C27.1006 21.6683 26.6097 22.1592 26.0049 22.1592C25.4002 22.159 24.9102 21.6682 24.9102 21.0635C24.9104 20.459 25.4004 19.969 26.0049 19.9688ZM15.0947 16C15.6994 16 16.1902 16.4901 16.1904 17.0947C16.1904 17.6996 15.6995 18.1904 15.0947 18.1904C14.4901 18.1902 14 17.6995 14 17.0947C14.0003 16.4902 14.4903 16.0002 15.0947 16ZM20.5518 16C21.1564 16 21.6472 16.4901 21.6475 17.0947C21.6475 17.6996 21.1566 18.1904 20.5518 18.1904C19.9471 18.1902 19.457 17.6995 19.457 17.0947C19.4573 16.4902 19.9473 16.0002 20.5518 16ZM26.0049 16C26.6095 16 27.1003 16.4901 27.1006 17.0947C27.1006 17.6996 26.6097 18.1904 26.0049 18.1904C25.4002 18.1902 24.9102 17.6995 24.9102 17.0947C24.9104 16.4902 25.4004 16.0002 26.0049 16Z" fill="#2D3A67" style="fill:#2D3A67;fill:color(display-p3 0.1765 0.2275 0.4039);fill-opacity:1;"/>
<path d="M17.1523 26H20.4071H24.0959" stroke="#2D3A67" style="stroke:#2D3A67;stroke:color(display-p3 0.1765 0.2275 0.4039);stroke-opacity:1;" stroke-width="1.8" stroke-linecap="round"/>
<defs>
<filter id="filter0_d_8_16624" x="0" y="0" width="42" height="42" filterUnits="userSpaceOnUse" color-interpolation-filters="sRGB">
<feFlood flood-opacity="0" result="BackgroundImageFix"/>
<feColorMatrix in="SourceAlpha" type="matrix" values="0 0 0 0 0 0 0 0 0 0 0 0 0 0 0 0 0 0 127 0" result="hardAlpha"/>
<feOffset/>
<feGaussianBlur stdDeviation="3"/>
<feComposite in2="hardAlpha" operator="out"/>
<feColorMatrix type="matrix" values="0 0 0 0 0.620222 0 0 0 0 0.681345 0 0 0 0 0.774902 0 0 0 0.25 0"/>
<feBlend mode="normal" in2="BackgroundImageFix" result="effect1_dropShadow_8_16624"/>
<feBlend mode="normal" in="SourceGraphic" in2="effect1_dropShadow_8_16624" result="shape"/>
</filter>
</defs>
</svg>
